<svg xmlns="http://www.w3.org/2000/svg" xml:space="preserve" viewBox="0 0 663.7 690"><path fill="#1b1817" d="M550 215a75 75 0 1 1-150 0 75 75 0 1 1 150 0z"/><path fill="#f03c2e" d="m465.6 176.1 11.6 12.9a8.1 8.1 0 0 1 9.8 10.9l11.2 12.3a8.1 8.1 0 1 1-5.2 4.4L482.6 205l-1.5 29c.8.4 1.5 1 2.1 1.6a8.2 8.2 0 1 1-8.7-2.2l1.5-29.2a8.2 8.2 0 0 1-3.9-11l-11.4-12.6"/><path fill="gray" d="M433 514.8a57.3 57.3 0 0 0-103.5 24.5 57.7 57.7 0 0 0 36.6 63l-7.7 47.4c3.5 8.3 21.9 7.6 22.6 3.6l7.7-47.4a57.7 57.7 0 0 0 44.2-91.1zm-12.4 8.8a42.2 42.2 0 1 1-76 18 42.2 42.2 0 0 1 76-18z" color="#000" style="text-indent:0;text-transform:none;block-progression:tb" transform="translate(95.9 -330.2)"/><path fill="#fff" d="M432 512.3a57.3 57.3 0 0 0-103.6 23.2 57.7 57.7 0 0 0 35.8 63.4l-8.3 47.3c3.4 8.4 21.8 8 22.6 4l8.2-47.4a57.7 57.7 0 0 0 45.4-90.5zm-12.3 8.7a42.2 42.2 0 1 1-76.3 17.1 42.2 42.2 0 0 1 76.3-17.1z" color="#000" style="text-indent:0;text-transform:none;block-progression:tb" transform="translate(95.9 -330.2)"/></svg>
